<?xml version="1.0" standalone="no"?>
<!DOCTYPE svg PUBLIC "-//W3C//DTD SVG 20010904//EN"
 "http://www.w3.org/TR/2001/REC-SVG-20010904/DTD/svg10.dtd">
<svg version="1.0" xmlns="http://www.w3.org/2000/svg"
 width="300.000000pt" height="600.000000pt" viewBox="0 0 300.000000 600.000000"
 preserveAspectRatio="xMidYMid meet">

<g transform="translate(0.000000,600.000000) scale(0.100000,-0.100000)"
fill="#000000" stroke="none">
<path d="M1110 5989 c-336 -17 -582 -63 -672 -125 -49 -34 -69 -89 -147 -414
-118 -485 -131 -733 -80 -1460 27 -384 40 -1370 18 -1370 -8 0 -51 9 -97 20
-46 11 -85 20 -87 20 -8 0 -45 -113 -45 -140 0 -79 44 -127 156 -170 l84 -33
0 -303 c0 -280 -2 -307 -20 -354 -41 -103 -53 -218 -47 -440 8 -283 40 -435
130 -615 155 -313 448 -509 867 -582 121 -21 515 -24 635 -5 433 70 734 269
892 587 90 180 122 332 130 615 6 222 -6 337 -47 440 -18 47 -20 74 -20 354
l0 303 84 33 c112 43 156 91 156 170 0 27 -37 140 -45 140 -2 0 -41 -9 -87
-20 -46 -11 -89 -20 -97 -20 -22 0 -9 986 18 1370 43 603 40 830 -15 1150 -34
199 -116 534 -160 656 -25 71 -113 114 -300 148 -264 49 -772 68 -1204 45z
m955 -129 c225 -20 391 -52 465 -90 20 -10 42 -31 49 -46 6 -15 36 -122 66
-238 134 -524 154 -754 116 -1371 -38 -634 -41 -696 -41 -1167 0 -326 3 -468
11 -468 6 0 56 11 111 25 55 14 102 24 105 21 3 -2 7 -22 10 -43 8 -59 -19
-84 -137 -128 l-100 -38 0 -337 c0 -318 1 -340 20 -384 67 -150 67 -554 1
-810 -26 -97 -96 -248 -155 -330 -56 -78 -164 -182 -239 -230 -201 -129 -425
-190 -737 -203 -236 -9 -441 16 -630 76 l-85 27 -7 56 c-9 72 -27 115 -69 162
-64 73 -165 118 -294 131 -70 7 -71 7 -97 48 -105 170 -158 405 -158 706 0
178 15 290 50 368 19 43 20 68 20 382 l0 336 -101 39 c-118 46 -144 71 -136
129 3 21 7 41 10 43 3 3 50 -7 105 -21 55 -14 105 -25 111 -25 8 0 11 139 11
458 0 467 -3 545 -41 1162 -30 500 -21 750 37 1045 36 184 132 568 149 595 11
18 79 48 145 65 127 33 347 58 595 69 142 6 727 -3 840 -14z"/>
<path d="M1337 5494 c-233 -36 -411 -128 -483 -250 -19 -32 -32 -93 -65 -295
-22 -140 -38 -271 -36 -292 6 -45 46 -100 90 -125 30 -16 81 -17 657 -17 699
0 659 -4 717 72 26 34 28 43 27 122 -1 50 1 77 6 66 14 -37 31 -44 90 -34 61
10 80 27 80 74 0 57 -15 66 -96 54 -68 -11 -72 -13 -81 -42 -7 -25 -14 5 -41
173 -25 158 -38 213 -56 244 -73 124 -252 215 -490 251 -123 18 -200 18 -319
-1z"/>
<path d="M617 4401 c-63 -41 -112 -111 -143 -206 -35 -107 -44 -291 -32 -625
8 -246 3 -969 -8 -1117 -5 -67 -4 -73 14 -73 43 0 130 268 186 570 50 273 82
709 71 985 -8 217 -27 479 -34 488 -4 4 -28 -6 -54 -22z"/>
<path d="M2326 4418 c-6 -19 -25 -302 -31 -478 -11 -282 20 -715 71 -990 56
-302 143 -570 186 -570 18 0 19 6 14 73 -11 148 -16 871 -8 1117 16 435 -4
612 -80 732 -46 72 -143 146 -152 116z"/>
<path d="M775 2675 c-48 -17 -94 -67 -129 -140 -38 -81 -109 -459 -104 -550
12 -185 172 -342 438 -429 174 -57 275 -70 520 -70 245 0 346 13 520 70 266
87 426 244 438 429 5 92 -67 470 -106 553 -34 73 -87 127 -137 141 -27 7 -253
11 -720 11 -557 -1 -687 -3 -720 -15z"/>
<path d="M523 1824 c-3 -9 -3 -87 1 -173 24 -583 178 -1141 367 -1332 77 -78
328 -184 360 -152 14 14 25 -19 -129 373 -113 289 -174 469 -258 765 -20 72
-41 138 -46 148 -11 20 -37 23 -44 3 -6 -15 79 -313 157 -551 26 -82 96 -269
153 -414 l104 -263 -31 6 c-66 12 -194 85 -239 134 -177 198 -317 728 -344
1302 -4 80 -11 151 -17 158 -13 17 -26 15 -34 -4z"/>
<path d="M2443 1828 c-6 -7 -13 -78 -17 -158 -6 -136 -29 -371 -42 -432 -3
-16 -12 -28 -19 -28 -13 0 -18 -15 -65 -185 -51 -185 -150 -297 -245 -279 -19
3 -35 7 -35 8 0 1 16 49 35 107 64 188 177 580 171 595 -7 19 -33 18 -44 -3
-5 -10 -26 -76 -46 -148 -84 -296 -145 -476 -258 -765 -154 -392 -143 -359
-129 -373 32 -32 283 74 360 152 194 195 360 817 365 1360 1 152 -5 182 -31
149z m-93 -789 c-61 -298 -173 -574 -278 -682 -39 -40 -174 -113 -229 -123
l-31 -6 96 245 c96 244 97 246 119 231 28 -18 86 -18 121 0 77 41 123 122 177
314 21 73 40 131 42 128 2 -2 -6 -50 -17 -107z"/>
<path d="M2431 470 c-185 -27 -321 -155 -321 -302 0 -35 9 -33 105 15 97 48
194 120 285 212 l85 85 -50 -1 c-28 -1 -74 -5 -104 -9z"/>
</g>
</svg>
